<svg xmlns="http://www.w3.org/2000/svg" style="display: none;"><symbol id="icon-check" viewBox="0 0 24 24"><title>check circle alternate</title><g class="nc-icon-wrapper" fill="currentColor"><path d="M23.409.4a1.25 1.25 0 0 0-1.758.19L8.969 16.332l-2.651-2.651a1.25 1.25 0 1 0-1.768 1.768l3.636 3.635a1.261 1.261 0 0 0 1.857-.1L23.6 2.159A1.25 1.25 0 0 0 23.409.4z"/><path d="M17.865 12.89a1 1 0 0 0-.932 1.064q.018.252.018.507a7.408 7.408 0 1 1-4.769-6.927 1 1 0 0 0 .718-1.869 9.414 9.414 0 1 0 6.056 8.8 9.7 9.7 0 0 0-.022-.64 1 1 0 0 0-1.069-.935z"/></g></symbol><symbol id="icon-delete" viewBox="0 0 24 24"><title>delete 1</title><g class="nc-icon-wrapper" fill="currentColor"><defs/><circle class="a" cx="11.998" cy="12" r="11.25" fill="none" stroke="currentColor" stroke-linecap="round" stroke-linejoin="round" stroke-width="1.5px"/><path class="a" d="M7.498 16.5l8.999-9" fill="none" stroke="currentColor" stroke-linecap="round" stroke-linejoin="round" stroke-width="1.5px"/><path class="a" d="M16.498 16.5l-9.001-9" fill="none" stroke="currentColor" stroke-linecap="round" stroke-linejoin="round" stroke-width="1.5px"/></g></symbol></svg>
