<svg xmlns="http://www.w3.org/2000/svg" style="display: none;"><symbol id="icon-check" viewBox="0 0 24 24"><title>check circle alternate</title><g class="nc-icon-wrapper" fill="currentColor"><path d="M23.409.4a1.25 1.25 0 0 0-1.758.19L8.969 16.332l-2.651-2.651a1.25 1.25 0 1 0-1.768 1.768l3.636 3.635a1.261 1.261 0 0 0 1.857-.1L23.6 2.159A1.25 1.25 0 0 0 23.409.4z"/><path d="M17.865 12.89a1 1 0 0 0-.932 1.064q.018.252.018.507a7.408 7.408 0 1 1-4.769-6.927 1 1 0 0 0 .718-1.869 9.414 9.414 0 1 0 6.056 8.8 9.7 9.7 0 0 0-.022-.64 1 1 0 0 0-1.069-.935z"/></g></symbol><symbol id="icon-delete" viewBox="0 0 24 24"><title>delete 1</title><g class="nc-icon-wrapper" fill="currentColor"><defs/><circle class="a" cx="11.998" cy="12" r="11.25" fill="none" stroke="currentColor" stroke-linecap="round" stroke-linejoin="round" stroke-width="1.5px"/><path class="a" d="M7.498 16.5l8.999-9" fill="none" stroke="currentColor" stroke-linecap="round" stroke-linejoin="round" stroke-width="1.5px"/><path class="a" d="M16.498 16.5l-9.001-9" fill="none" stroke="currentColor" stroke-linecap="round" stroke-linejoin="round" stroke-width="1.5px"/></g></symbol><symbol id="icon-coins" viewBox="0 0 48 48"><title>coins</title><g class="nc-icon-wrapper"><path fill="currentColor" d="M14,2C7.159,2,2,3.72,2,6s5.159,4,12,4s12-1.72,12-4S20.841,2,14,2z"/> <path data-color="color-2" d="M34,40c-4.412,0-9.327-0.735-12-2.612V42c0,2.28,5.159,4,12,4s12-1.72,12-4v-4.612 C43.327,39.265,38.412,40,34,40z"/> <path data-color="color-2" d="M34,32c-4.412,0-9.327-0.735-12-2.612V34c0,2.28,5.159,4,12,4s12-1.72,12-4v-4.612 C43.327,31.265,38.412,32,34,32z"/> <path data-color="color-2" d="M34,24c-4.412,0-9.327-0.735-12-2.612V26c0,2.28,5.159,4,12,4s12-1.72,12-4v-4.612 C43.327,23.265,38.412,24,34,24z"/> <path data-color="color-2" d="M34,14c-6.841,0-12,1.72-12,4s5.159,4,12,4s12-1.72,12-4S40.841,14,34,14z"/> <path fill="currentColor" d="M14,18c2.242,0,4.297-0.188,6.056-0.516c0.324-2.281,2.758-3.737,5.944-4.569V9.388 C23.327,11.265,18.412,12,14,12S4.673,11.265,2,9.388V14C2,16.28,7.159,18,14,18z"/> <path fill="currentColor" d="M14,26c2.218,0,4.254-0.183,6-0.505v-5.988C18.062,19.841,15.984,20,14,20c-4.412,0-9.327-0.735-12-2.612V22 C2,24.28,7.159,26,14,26z"/> <path fill="currentColor" d="M14,34c2.218,0,4.254-0.183,6-0.505v-5.988C18.062,27.841,15.984,28,14,28c-4.412,0-9.327-0.735-12-2.612V30 C2,32.28,7.159,34,14,34z"/> <path fill="currentColor" d="M20,35.507C18.062,35.841,15.984,36,14,36c-4.412,0-9.327-0.735-12-2.612V38c0,2.28,5.159,4,12,4 c2.218,0,4.254-0.183,6-0.505V35.507z"/></g></symbol></svg>